<svg xmlns="http://www.w3.org/2000/svg" viewBox="0 0 256 256">
  <defs>
    <linearGradient id="bg" x1="0" y1="0" x2="1" y2="1">
      <stop offset="0%" stop-color="#0f766e"/>
      <stop offset="100%" stop-color="#134e4a"/>
    </linearGradient>
  </defs>
  <rect x="16" y="16" width="224" height="224" rx="44" fill="url(#bg)"/>
  <path d="M58 168c28-58 52-86 76-86 22 0 32 22 42 22 10 0 20-12 22-16" fill="none" stroke="#f8fafc" stroke-width="14" stroke-linecap="round" stroke-linejoin="round" opacity="0.95"/>
  <path d="M60 168c26-52 50-78 74-78 18 0 30 18 40 18 9 0 18-10 22-14" fill="none" stroke="#ef4444" stroke-width="8" stroke-linecap="round" stroke-linejoin="round"/>
  <circle cx="72" cy="166" r="13" fill="#facc15" stroke="#111827" stroke-width="6"/>
  <path d="M164 78c0 21-28 52-36 52s-36-31-36-52a36 36 0 1 1 72 0Z" fill="#22c55e" stroke="#f8fafc" stroke-width="8"/>
  <circle cx="128" cy="78" r="13" fill="#f8fafc"/>
</svg>
